<?xml version="1.0" standalone="no"?>
<!DOCTYPE svg PUBLIC "-//W3C//DTD SVG 20010904//EN"
 "http://www.w3.org/TR/2001/REC-SVG-20010904/DTD/svg10.dtd">
<svg version="1.0" xmlns="http://www.w3.org/2000/svg"
 width="300.000000pt" height="300.000000pt" viewBox="0 0 300.000000 300.000000"
 preserveAspectRatio="xMidYMid meet">
<metadata>
Created by potrace 1.11, written by Peter Selinger 2001-2013
</metadata>
<g transform="translate(0.000000,300.000000) scale(0.100000,-0.100000)"
fill="#000000" stroke="none">
<path d="M169 2561 c-82 -82 -149 -155 -149 -162 0 -8 15 -30 33 -49 18 -19
93 -105 166 -190 74 -85 139 -159 145 -165 6 -5 24 -26 40 -45 15 -19 45 -53
65 -75 20 -22 63 -71 96 -110 33 -38 74 -85 90 -102 17 -18 35 -38 40 -45 6
-7 48 -56 94 -108 195 -222 251 -286 251 -291 0 -2 -226 -4 -502 -3 -277 0
-508 -3 -514 -8 -8 -6 2 -46 31 -136 24 -70 91 -274 149 -453 l107 -326 143
-147 142 -146 904 0 904 0 143 147 143 147 105 321 c173 530 187 575 182 588
-3 9 -117 12 -483 12 -264 -1 -489 1 -500 5 -12 3 -68 48 -125 100 -127 117
-131 121 -225 206 -42 37 -89 80 -104 94 -15 14 -67 61 -115 105 -49 44 -98
89 -109 100 -12 11 -44 40 -71 64 -28 25 -80 72 -116 105 -36 34 -106 97 -154
141 -49 44 -99 89 -111 100 -12 11 -59 54 -105 95 -46 41 -95 86 -109 100 -15
14 -67 61 -115 105 -49 44 -112 101 -140 127 -27 26 -56 48 -64 48 -7 0 -80
-67 -162 -149z"/>
</g>
</svg>
