<?xml version="1.0" standalone="no"?>
<!DOCTYPE svg PUBLIC "-//W3C//DTD SVG 20010904//EN"
 "http://www.w3.org/TR/2001/REC-SVG-20010904/DTD/svg10.dtd">
<svg version="1.0" xmlns="http://www.w3.org/2000/svg"
 width="700.000000pt" height="700.000000pt" viewBox="0 0 700.000000 700.000000"
 preserveAspectRatio="xMidYMid meet">
<metadata>
Created by potrace 1.11, written by Peter Selinger 2001-2013
</metadata>
<g transform="translate(0.000000,700.000000) scale(0.100000,-0.100000)"
fill="#000000" stroke="none">
<path d="M397 5972 c-196 -196 -357 -364 -357 -372 0 -9 540 -633 1200 -1387
660 -754 1200 -1374 1200 -1377 0 -3 -539 -7 -1197 -8 l-1198 -3 -3 -21 c-3
-19 665 -2084 685 -2119 5 -7 156 -164 337 -349 l328 -336 2108 0 2108 0 328
336 c181 185 332 342 337 349 20 35 688 2100 685 2119 l-3 21 -1161 5 c-1144
5 -1162 5 -1184 25 -13 11 -878 797 -1923 1748 -1046 950 -1908 1727 -1917
1727 -8 0 -176 -161 -373 -358z"/>
</g>
</svg>
